<?xml version="1.0" standalone="no"?><!DOCTYPE svg PUBLIC "-//W3C//DTD SVG 1.1//EN" "http://www.w3.org/Graphics/SVG/1.1/DTD/svg11.dtd"><svg t="1683129613922" class="icon" viewBox="0 0 1024 1024" version="1.1" xmlns="http://www.w3.org/2000/svg" p-id="2773" xmlns:xlink="http://www.w3.org/1999/xlink" width="200" height="200"><path d="M183.379592 699.559184c-4.179592 0-8.359184-1.044898-11.493878-3.657143-6.269388-4.702041-9.404082-12.016327-7.836734-19.330612l13.061224-77.322449C136.881633 553.273469 114.938776 496.326531 114.938776 437.289796 114.938776 292.571429 246.073469 175.020408 408.032653 175.020408c76.8 0 149.420408 26.644898 204.8 74.710204 55.379592 48.587755 86.726531 113.893878 88.293878 183.379592 0 5.746939-2.089796 10.971429-6.269388 14.628572s-9.404082 5.746939-15.151021 5.746938c-5.22449-0.522449-9.404082-0.522449-13.583673-0.522449-112.326531 0-203.232653 79.934694-203.232653 178.677551 0 13.583673 1.567347 27.167347 5.22449 40.751021 1.567347 5.746939 0.522449 11.493878-2.612245 16.195918-3.134694 4.702041-8.359184 7.836735-14.106123 8.881633-14.106122 2.089796-28.734694 3.134694-43.363265 3.134694-52.767347 0-104.489796-12.538776-149.420408-36.571429l-65.828572 34.481633c-3.134694 0-6.269388 1.044898-9.404081 1.044898z" fill="#0B9682" p-id="2774"></path><path d="M303.542857 352.653061m-35.004081 0a35.004082 35.004082 0 1 0 70.008163 0 35.004082 35.004082 0 1 0-70.008163 0Z" fill="#DCFFFA" p-id="2775"></path><path d="M512 352.653061m-35.004082 0a35.004082 35.004082 0 1 0 70.008164 0 35.004082 35.004082 0 1 0-70.008164 0Z" fill="#DCFFFA" p-id="2776"></path><path d="M849.502041 849.502041c-3.134694 0-6.269388-0.522449-9.404082-2.089796l-52.244898-27.167347c-37.093878 19.330612-78.889796 29.779592-122.253061 29.779592-134.269388 0-242.938776-98.220408-242.938776-218.383674S531.853061 412.734694 665.6 412.734694 909.061224 510.955102 909.061224 631.118367c0 48.065306-17.763265 95.085714-50.677551 133.22449l10.44898 61.64898c1.044898 7.314286-1.567347 15.15102-7.836735 19.330612-3.134694 3.134694-7.314286 4.179592-11.493877 4.179592z" fill="#16C4AF" p-id="2777"></path><path d="M576.261224 575.738776m-29.779591 0a29.779592 29.779592 0 1 0 59.559183 0 29.779592 29.779592 0 1 0-59.559183 0Z" fill="#DCFFFA" p-id="2778"></path><path d="M755.461224 575.738776m-29.779591 0a29.779592 29.779592 0 1 0 59.559183 0 29.779592 29.779592 0 1 0-59.559183 0Z" fill="#DCFFFA" p-id="2779"></path></svg>